# xmcd CD database file
#
# Track frame offsets:
#	150
#	13540
#	26157
#	45687
#	58517
#	72172
#	84382
#	96767
#	114967
#	125377
#	141622
#	156377
#	170192
#	182252
#	198492
#
# Disc length: 2816 seconds
#
# Revision: 3
# Processed by: cddbd v1.5.1PL0 Copyright (c) Steve Scherf et al.
# Submitted via: CDex 1.51
#
DISCID=ce0afe0f
DTITLE=The Gadjits - At Ease
DYEAR=1998
DGENRE=Ska
TTITLE0=Bullet in the Mattress
TTITLE1=Sh'Bop
TTITLE2=Seat 6
TTITLE3=Tell Yourself
TTITLE4=Traffic Tickets
TTITLE5=California
TTITLE6=Corpse I Fell in Love With
TTITLE7=Trusted
TTITLE8=Party Girl
TTITLE9=Backup
TTITLE10=Holes in My Shoes
TTITLE11=Skinhead Girl
TTITLE12=Need Yo' Lov
TTITLE13=Mustang Sally
TTITLE14=Beautiful Girl
EXTD=YEAR: 1998
EXTT0=
EXTT1=
EXTT2=
EXTT3=
EXTT4=
EXTT5=
EXTT6=
EXTT7=
EXTT8=
EXTT9=
EXTT10=
EXTT11=
EXTT12=
EXTT13=
EXTT14=
PLAYORDER=
